<?xml version="1.0" encoding="iso-8859-1"?>
<!-- Generator: Adobe Illustrator 17.1.0, SVG Export Plug-In . SVG Version: 6.00 Build 0)  -->
<!DOCTYPE svg PUBLIC "-//W3C//DTD SVG 1.1//EN" "http://www.w3.org/Graphics/SVG/1.1/DTD/svg11.dtd">
<svg version="1.1" id="Capa_1" xmlns="http://www.w3.org/2000/svg" xmlns:xlink="http://www.w3.org/1999/xlink" x="0px" y="0px"
	 viewBox="0 0 470 470" style="enable-background:new 0 0 470 470;" xml:space="preserve">
<g>
	<path d="M401.17,68.83C356.784,24.444,297.771,0,235,0S113.216,24.444,68.83,68.83C24.444,113.215,0,172.229,0,235
		s24.444,121.785,68.83,166.17C113.216,445.556,172.229,470,235,470s121.784-24.444,166.17-68.83
		C445.556,356.785,470,297.771,470,235S445.556,113.215,401.17,68.83z M235,455c-121.309,0-220-98.691-220-220S113.691,15,235,15
		s220,98.691,220,220S356.309,455,235,455z"/>
	<path d="M290,362.667H180c-4.143,0-7.5,3.358-7.5,7.5s3.357,7.5,7.5,7.5h110c4.143,0,7.5-3.358,7.5-7.5
		S294.143,362.667,290,362.667z"/>
	<path d="M318.922,282.599v-142.96c0-4.142-3.357-7.5-7.5-7.5H158.578c-4.143,0-7.5,3.358-7.5,7.5v142.96
		c0,12.916,9.425,26.715,21.456,31.414l59.737,23.335c0.877,0.343,1.803,0.514,2.729,0.514s1.852-0.171,2.729-0.514l59.737-23.335
		C309.497,309.313,318.922,295.515,318.922,282.599z M303.922,282.599c0,6.813-5.567,14.963-11.913,17.442L235,322.31
		l-57.009-22.269c-6.346-2.479-11.913-10.63-11.913-17.442v-135.46h137.844V282.599z"/>
	<path d="M188.578,290.099H227.5v2.5c0,4.142,3.357,7.5,7.5,7.5s7.5-3.358,7.5-7.5v-2.5h38.922c4.143,0,7.5-3.358,7.5-7.5V175
		c0-4.142-3.357-7.5-7.5-7.5c-21.783,0-30.835,41.769-34.23,65.716H242.5v-63.578c0-4.142-3.357-7.5-7.5-7.5s-7.5,3.358-7.5,7.5
		v63.578h-4.691c-3.396-23.948-12.447-65.716-34.23-65.716c-4.143,0-7.5,3.358-7.5,7.5v107.599
		C181.078,286.741,184.436,290.099,188.578,290.099z M271.581,196.237c0.803-1.945,1.587-3.627,2.341-5.081v42.06h-11.578
		C264.55,218.304,267.705,205.63,271.581,196.237z M273.922,248.216v26.882H242.5v-26.882H273.922z M227.5,275.099h-31.422v-26.882
		H227.5V275.099z M198.419,196.237c3.876,9.392,7.031,22.066,9.237,36.979h-11.578v-42.06
		C196.832,192.61,197.616,194.292,198.419,196.237z"/>
	<path d="M323.454,85.586c-2.515-3.292-7.222-3.924-10.513-1.409l-22.948,17.524l-22.949-17.524c-2.688-2.052-6.415-2.052-9.104,0
		l-22.943,17.523l-22.945-17.523c-2.688-2.053-6.415-2.053-9.104,0l-22.943,17.523L157.06,84.178
		c-3.293-2.515-7.998-1.882-10.514,1.408c-2.514,3.292-1.883,7.999,1.408,10.513l27.496,21c1.345,1.026,2.948,1.54,4.553,1.54
		s3.208-0.513,4.553-1.54l22.943-17.523l22.945,17.523c2.688,2.053,6.415,2.053,9.104,0l22.943-17.523l22.949,17.524
		c2.688,2.052,6.416,2.052,9.104,0l27.5-21C325.337,93.585,325.968,88.878,323.454,85.586z"/>
	<path d="M88.794,167.5c-4.143,0-7.5,3.358-7.5,7.5v77.814c0,18.119,12.994,33.254,30.152,36.592
		c1.768,16.933,9.984,33.85,22.745,46.326c1.459,1.427,3.352,2.137,5.242,2.137c1.948,0,3.895-0.754,5.363-2.257
		c2.896-2.961,2.843-7.71-0.119-10.606c-11.646-11.387-18.599-27.24-18.599-42.408V175c0-4.142-3.357-7.5-7.5-7.5
		s-7.5,3.358-7.5,7.5v3.759c-2.316-0.812-4.802-1.259-7.392-1.259c-2.59,0-5.077,0.447-7.393,1.26V175
		C96.294,170.858,92.937,167.5,88.794,167.5z M96.295,199.892c0-4.076,3.315-7.392,7.392-7.392s7.392,3.316,7.392,7.392v73.904
		c-8.608-3.086-14.784-11.325-14.784-20.982C96.294,252.814,96.294,199.911,96.295,199.892z"/>
	<path d="M330.567,337.87c1.891,0,3.783-0.711,5.242-2.137c12.76-12.476,20.977-29.393,22.745-46.326
		c17.157-3.338,30.152-18.473,30.152-36.592V175c0-4.142-3.357-7.5-7.5-7.5s-7.5,3.358-7.5,7.5v3.76
		c-2.316-0.813-4.802-1.26-7.393-1.26c-2.59,0-5.076,0.447-7.392,1.259V175c0-4.142-3.357-7.5-7.5-7.5s-7.5,3.358-7.5,7.5v107.599
		c0,15.168-6.953,31.021-18.599,42.408c-2.962,2.896-3.016,7.645-0.119,10.606C326.673,337.116,328.619,337.87,330.567,337.87z
		 M366.313,192.5c4.076,0,7.393,3.316,7.393,7.392v52.922c0,9.657-6.176,17.896-14.784,20.982v-73.904
		C358.922,195.816,362.237,192.5,366.313,192.5z"/>
	<path d="M235,25.5C119.481,25.5,25.5,119.481,25.5,235S119.481,444.5,235,444.5c50.196,0,98.756-18.032,136.731-50.773
		c3.137-2.705,3.487-7.44,0.783-10.578c-2.707-3.138-7.442-3.487-10.578-0.783C326.683,412.761,281.603,429.5,235,429.5
		c-107.248,0-194.5-87.252-194.5-194.5S127.752,40.5,235,40.5S429.5,127.752,429.5,235c0,46.603-16.739,91.683-47.134,126.936
		c-2.704,3.137-2.354,7.873,0.783,10.578c3.136,2.704,7.872,2.355,10.578-0.783C426.469,333.755,444.5,285.197,444.5,235
		C444.5,119.481,350.519,25.5,235,25.5z"/>
</g>
<g>
</g>
<g>
</g>
<g>
</g>
<g>
</g>
<g>
</g>
<g>
</g>
<g>
</g>
<g>
</g>
<g>
</g>
<g>
</g>
<g>
</g>
<g>
</g>
<g>
</g>
<g>
</g>
<g>
</g>
</svg>
