<svg aria-hidden="true" style="position: absolute; width: 0; height: 0; overflow: hidden;" version="1.1" xmlns="http://www.w3.org/2000/svg" xmlns:xlink="http://www.w3.org/1999/xlink">
<defs>
<symbol id="arrowRight" viewBox="0 0 60 32">
<path fill="#fff" style="fill: var(--color1, #fff)" d="M57.414 17.414c0.781-0.781 0.781-2.047 0-2.828l-12.728-12.728c-0.781-0.781-2.048-0.781-2.828 0s-0.781 2.047 0 2.828l11.314 11.314-11.314 11.314c-0.781 0.781-0.781 2.047 0 2.828s2.047 0.781 2.828 0l12.728-12.728zM0 18h56v-4h-56v4z"></path>
</symbol>
<symbol id="twitter" viewBox="0 0 32 32">
<path fill="#fff" d="M15.431 10.019l0.001 0.092c-3.825-0.52-7.186-2.492-9.514-5.347-0.284-0.348-0.743-0.471-1.147-0.344-0.275 0.037-0.532 0.192-0.689 0.446-0.703 1.133-0.709 2.391-0.709 3.389 0 1.089 0.265 2.116 0.734 3.021-0.107 0.020-0.21 0.059-0.307 0.116-0.293 0.172-0.473 0.487-0.473 0.827v0.072c0 1.964 0.862 3.726 2.229 4.929-0.008 0.008-0.016 0.017-0.024 0.026-0.224 0.254-0.298 0.607-0.195 0.929 0.574 1.792 1.899 3.25 3.606 4.003-1.721 0.752-3.673 0.99-5.625 0.759-0.386-0.045-0.746 0.145-0.935 0.457-0.033 0.038-0.064 0.079-0.092 0.123-0.318 0.496-0.174 1.156 0.322 1.474 2.646 1.698 5.79 2.687 9.165 2.687 11.021 0 17.012-9.147 17.012-17.011 0-0.377-0.028-0.755-0.084-1.132 1.039-0.774 1.943-1.725 2.662-2.801l0.002-0.004c-0.999 0.443-2.072 0.743-3.2 0.88-0.001-0.002-0.002-0.005-0.003-0.007 1.15-0.693 2.032-1.789 2.449-3.092-1.057 0.627-2.226 1.087-3.469 1.341-1.157-1.484-2.884-2.507-5.046-2.507-3.684 0-6.67 2.987-6.67 6.672zM11.779 25.546c-1.68 0-3.293-0.28-4.797-0.794 1.83-0.317 3.585-1.038 5.098-2.223 0.32-0.251 0.447-0.676 0.318-1.061s-0.487-0.647-0.893-0.655c-1.499-0.026-2.828-0.766-3.658-1.894 0.406-0.033 0.803-0.103 1.187-0.206 0.43-0.116 0.724-0.513 0.709-0.958s-0.334-0.822-0.771-0.91c-1.661-0.333-3.001-1.554-3.507-3.145 0.428 0.104 0.873 0.165 1.329 0.18 0.428 0.014 0.814-0.258 0.945-0.666s-0.024-0.854-0.38-1.092c-1.247-0.833-2.066-2.256-2.066-3.867 0-0.357 0.005-0.676 0.026-0.965 2.896 2.948 6.859 4.847 11.269 5.069 0.334 0.017 0.656-0.124 0.871-0.379s0.297-0.597 0.223-0.923c-0.077-0.336-0.118-0.683-0.118-1.038 0-2.508 2.032-4.539 4.537-4.539 2.633 0 4.556 2.439 4.556 5.189 0 6.947-5.281 14.877-14.879 14.877z"></path>
</symbol>
<symbol id="facebook" viewBox="0 0 30 30">
<path fill="#fff" d="M13.984 5.050c1.313-1.313 3.093-2.050 4.95-2.050h3.6c0.552 0 1 0.448 1 1v4.8c0 0.552-0.448 1-1 1h-3.6c-0.053 0-0.104 0.021-0.141 0.059s-0.059 0.088-0.059 0.141v2.6h3.8c0.308 0 0.599 0.142 0.788 0.385s0.257 0.559 0.182 0.858l-1.2 4.8c-0.111 0.445-0.511 0.757-0.97 0.757h-2.6v8.6c0 0.552-0.448 1-1 1h-4.8c-0.552 0-1-0.448-1-1v-8.6h-2.6c-0.552 0-1-0.448-1-1v-4.8c0-0.552 0.448-1 1-1h2.6v-2.6c0-1.857 0.738-3.637 2.050-4.95zM18.933 5c-1.326 0-2.598 0.527-3.536 1.464s-1.464 2.209-1.464 3.536v3.6c0 0.552-0.448 1-1 1h-2.6v2.8h2.6c0.552 0 1 0.448 1 1v8.6h2.8v-8.6c0-0.552 0.448-1 1-1h2.819l0.7-2.8h-3.519c-0.552 0-1-0.448-1-1v-3.6c0-0.583 0.232-1.143 0.644-1.556s0.972-0.644 1.556-0.644h2.6v-2.8h-2.6z"></path>
</symbol>
<symbol id="insta" viewBox="0 0 32 32">
<path fill="#fff" style="fill: var(--color1, #fff)" d="M15.997 0.396c-4.238 0-4.769 0.018-6.434 0.094-1.661 0.076-2.795 0.34-3.788 0.725-1.026 0.399-1.896 0.932-2.764 1.8s-1.401 1.738-1.8 2.764c-0.386 0.992-0.649 2.127-0.725 3.788-0.076 1.664-0.094 2.196-0.094 6.433s0.018 4.769 0.094 6.433c0.076 1.661 0.34 2.795 0.725 3.788 0.399 1.026 0.932 1.896 1.8 2.764s1.738 1.401 2.764 1.8c0.993 0.386 2.127 0.649 3.788 0.725 1.664 0.076 2.196 0.094 6.434 0.094s4.769-0.018 6.433-0.094c1.661-0.076 2.795-0.34 3.788-0.725 1.026-0.399 1.896-0.932 2.764-1.8s1.401-1.738 1.8-2.764c0.386-0.993 0.649-2.127 0.725-3.788 0.076-1.664 0.094-2.196 0.094-6.433s-0.018-4.769-0.094-6.433c-0.076-1.661-0.34-2.795-0.725-3.788-0.399-1.026-0.932-1.896-1.8-2.764s-1.738-1.401-2.764-1.8c-0.993-0.386-2.127-0.649-3.788-0.725-1.664-0.076-2.196-0.094-6.433-0.094zM15.997 3.208c4.166 0 4.66 0.016 6.305 0.091 1.521 0.069 2.348 0.324 2.898 0.537 0.728 0.283 1.248 0.621 1.794 1.167s0.884 1.066 1.167 1.794c0.214 0.55 0.468 1.376 0.537 2.897 0.075 1.645 0.091 2.139 0.091 6.305s-0.016 4.66-0.091 6.305c-0.069 1.521-0.324 2.348-0.537 2.897-0.283 0.728-0.621 1.248-1.167 1.794s-1.066 0.884-1.794 1.167c-0.55 0.214-1.376 0.468-2.898 0.537-1.645 0.075-2.139 0.091-6.305 0.091s-4.66-0.016-6.305-0.091c-1.521-0.069-2.348-0.324-2.897-0.537-0.728-0.283-1.248-0.621-1.794-1.167s-0.884-1.066-1.167-1.794c-0.214-0.55-0.468-1.376-0.537-2.897-0.075-1.645-0.091-2.139-0.091-6.305s0.016-4.66 0.091-6.305c0.069-1.521 0.324-2.348 0.537-2.897 0.283-0.728 0.621-1.248 1.167-1.794s1.066-0.884 1.794-1.167c0.55-0.214 1.376-0.468 2.897-0.537 1.645-0.075 2.139-0.091 6.305-0.091z"></path>
<path fill="#fff" style="fill: var(--color1, #fff)" d="M15.995 21.201c-2.873 0-5.201-2.329-5.201-5.201s2.329-5.201 5.201-5.201c2.873 0 5.201 2.329 5.201 5.201s-2.329 5.201-5.201 5.201zM15.995 7.987c-4.425 0-8.013 3.587-8.013 8.013s3.587 8.013 8.013 8.013c4.425 0 8.013-3.587 8.013-8.013s-3.587-8.013-8.013-8.013z"></path>
<path fill="#fff" style="fill: var(--color1, #fff)" d="M26.2 7.671c0 1.034-0.838 1.872-1.872 1.872s-1.872-0.838-1.872-1.872 0.838-1.872 1.872-1.872c1.034 0 1.872 0.838 1.872 1.872z"></path>
</symbol>
<symbol id="vk" viewBox="0 0 48 32">
<path fill="#fff" style="fill: var(--color1, #fff)" d="M46.027 24.889c-2.104-3.312-4.566-6.382-7.342-9.156-0.050-0.063-0.078-0.141-0.078-0.222s0.027-0.159 0.078-0.222c2.389-3.26 4.5-6.716 6.311-10.329 0.262-0.517 0.387-1.093 0.362-1.672s-0.198-1.142-0.504-1.635c-0.279-0.501-0.686-0.918-1.18-1.209s-1.056-0.444-1.629-0.445h-5.333c-0.677 0.013-1.336 0.219-1.899 0.594s-1.009 0.903-1.283 1.522c-1.549 3.426-3.405 6.705-5.547 9.796v-8.711c0.003-0.421-0.079-0.838-0.239-1.227s-0.396-0.743-0.693-1.041c-0.298-0.298-0.651-0.533-1.041-0.693s-0.806-0.241-1.227-0.239h-7.787c-0.453 0.007-0.896 0.138-1.28 0.378s-0.696 0.581-0.901 0.985c-0.205 0.404-0.296 0.857-0.262 1.309s0.19 0.886 0.452 1.256l0.711 0.996c0.381 0.548 0.586 1.199 0.587 1.867v6.827c-2.347-3.472-4.213-7.245-5.547-11.218-0.241-0.7-0.694-1.308-1.296-1.738s-1.324-0.662-2.064-0.662h-4.356c-0.463 0.006-0.918 0.115-1.333 0.322s-0.777 0.503-1.061 0.869c-0.284 0.366-0.481 0.791-0.578 1.243s-0.090 0.921 0.020 1.371c2.4 10.187 7.431 18.631 13.813 23.111 0.383 0.272 0.857 0.381 1.32 0.305s0.877-0.333 1.151-0.714c0.137-0.19 0.236-0.405 0.289-0.633s0.062-0.465 0.024-0.696c-0.038-0.231-0.121-0.453-0.245-0.652s-0.286-0.372-0.477-0.508c-5.582-3.911-10.027-11.36-12.284-20.462h3.733c1.636 4.97 4.1 9.629 7.289 13.778 0.369 0.471 0.876 0.814 1.451 0.98s1.187 0.147 1.749-0.055c0.578-0.201 1.077-0.579 1.428-1.080s0.535-1.099 0.527-1.711v-8.676c0.004-1.13-0.277-2.243-0.818-3.236h5.333v9.653c-0.006 0.691 0.215 1.364 0.629 1.917s0.999 0.954 1.664 1.141c0.645 0.215 1.343 0.211 1.986-0.011s1.194-0.649 1.57-1.216c2.525-3.602 4.681-7.45 6.436-11.484h4.978c-1.694 3.332-3.65 6.524-5.849 9.547-0.554 0.742-0.823 1.658-0.758 2.582s0.461 1.793 1.114 2.449c2.593 2.613 4.927 5.471 6.969 8.533h-5.956c-1.837-3.041-4.304-5.654-7.236-7.662-0.44-0.322-0.961-0.515-1.505-0.556s-1.088 0.072-1.571 0.324c-0.497 0.254-0.913 0.642-1.201 1.119s-0.439 1.026-0.434 1.583v4.231c0.010 0.247-0.078 0.488-0.244 0.671s-0.398 0.293-0.645 0.307h-1.529c-0.471 0-0.924 0.187-1.257 0.521s-0.521 0.786-0.521 1.257 0.187 0.924 0.521 1.257c0.334 0.333 0.786 0.521 1.257 0.521h1.529c0.59-0.005 1.173-0.126 1.716-0.356s1.035-0.566 1.448-0.987c0.413-0.421 0.739-0.92 0.958-1.467s0.329-1.133 0.322-1.723v-3.147c2.139 1.609 3.949 3.612 5.333 5.902 0.306 0.53 0.743 0.972 1.269 1.283s1.124 0.482 1.735 0.495h6.009c0.615 0.002 1.218-0.163 1.747-0.476s0.963-0.763 1.258-1.302c0.302-0.55 0.453-1.171 0.437-1.799s-0.197-1.24-0.526-1.775z"></path>
</symbol>
<symbol id="clock" viewBox="0 0 32 32">
<path fill="#fff" style="fill: var(--color1, #fff)" d="M16 31c-2.967 0-5.867-0.88-8.334-2.528s-4.389-3.991-5.525-6.732c-1.135-2.741-1.432-5.757-0.854-8.667s2.007-5.582 4.105-7.68c2.098-2.098 4.771-3.526 7.68-4.105s5.926-0.282 8.667 0.854c2.741 1.135 5.083 3.058 6.732 5.525s2.528 5.367 2.528 8.334c0 3.978-1.58 7.794-4.393 10.607s-6.628 4.393-10.607 4.393zM16 3c-2.571 0-5.085 0.762-7.222 2.191s-3.804 3.459-4.788 5.834c-0.984 2.375-1.241 4.989-0.74 7.511s1.74 4.838 3.558 6.656c1.818 1.818 4.134 3.056 6.656 3.558s5.136 0.244 7.511-0.74c2.375-0.984 4.406-2.65 5.834-4.788s2.191-4.651 2.191-7.222c0-3.448-1.37-6.754-3.808-9.192s-5.745-3.808-9.192-3.808z"></path>
<path fill="#fff" style="fill: var(--color1, #fff)" d="M20.24 21.66l-4.95-4.95c-0.093-0.093-0.166-0.204-0.216-0.326s-0.075-0.252-0.074-0.384v-8h2v7.59l4.66 4.65-1.42 1.42z"></path>
</symbol>
<symbol id="money" viewBox="0 0 32 32">
<path fill="none" stroke="#fff" style="stroke: var(--color1, #fff)" stroke-linejoin="round" stroke-linecap="round" stroke-miterlimit="10" stroke-width="1.28" d="M20.693 9.429c3.629 0 6.571-1.051 6.571-2.347s-2.942-2.347-6.571-2.347c-3.629 0-6.571 1.051-6.571 2.347s2.942 2.347 6.571 2.347z"></path>
<path fill="none" stroke="#fff" style="stroke: var(--color1, #fff)" stroke-linejoin="round" stroke-linecap="round" stroke-miterlimit="10" stroke-width="1.28" d="M14.123 7.552c0 0.428 0 2.388 0 2.816 0 1.296 2.941 2.347 6.571 2.347s6.571-1.051 6.571-2.347c0-0.428 0-2.388 0-2.816"></path>
<path fill="none" stroke="#fff" style="stroke: var(--color1, #fff)" stroke-linejoin="round" stroke-linecap="round" stroke-miterlimit="10" stroke-width="1.28" d="M17.666 15.737c0.906 0.168 1.936 0.263 3.027 0.263 3.63 0 6.571-1.051 6.571-2.347 0-0.428 0-2.388 0-2.816"></path>
<path fill="none" stroke="#fff" style="stroke: var(--color1, #fff)" stroke-linejoin="round" stroke-linecap="round" stroke-miterlimit="10" stroke-width="1.28" d="M14.123 10.837c0 0.428 0 2.004 0 2.004"></path>
<path fill="none" stroke="#fff" style="stroke: var(--color1, #fff)" stroke-linejoin="round" stroke-linecap="round" stroke-miterlimit="10" stroke-width="1.28" d="M17.889 19.061c0.85 0.144 1.801 0.224 2.804 0.224 3.63 0 6.571-1.050 6.571-2.347 0-0.428 0-2.388 0-2.816"></path>
<path fill="none" stroke="#fff" style="stroke: var(--color1, #fff)" stroke-linejoin="round" stroke-linecap="round" stroke-miterlimit="10" stroke-width="1.28" d="M17.853 22.341c0.859 0.147 1.823 0.23 2.84 0.23 3.63 0 6.571-1.050 6.571-2.347 0-0.428 0-2.388 0-2.816"></path>
<path fill="none" stroke="#fff" style="stroke: var(--color1, #fff)" stroke-linejoin="round" stroke-linecap="round" stroke-miterlimit="10" stroke-width="1.28" d="M11.307 17.408c3.629 0 6.571-1.051 6.571-2.347s-2.942-2.347-6.571-2.347c-3.629 0-6.571 1.051-6.571 2.347s2.942 2.347 6.571 2.347z"></path>
<path fill="none" stroke="#fff" style="stroke: var(--color1, #fff)" stroke-linejoin="round" stroke-linecap="round" stroke-miterlimit="10" stroke-width="1.28" d="M4.736 15.531c0 0.428 0 2.388 0 2.816 0 1.296 2.941 2.347 6.571 2.347s6.571-1.050 6.571-2.347c0-0.428 0-2.388 0-2.816"></path>
<path fill="none" stroke="#fff" style="stroke: var(--color1, #fff)" stroke-linejoin="round" stroke-linecap="round" stroke-miterlimit="10" stroke-width="1.28" d="M4.736 18.816c0 0.428 0 2.388 0 2.816 0 1.296 2.941 2.347 6.571 2.347s6.571-1.050 6.571-2.347c0-0.428 0-2.388 0-2.816"></path>
<path fill="none" stroke="#fff" style="stroke: var(--color1, #fff)" stroke-linejoin="round" stroke-linecap="round" stroke-miterlimit="10" stroke-width="1.28" d="M4.736 22.101c0 0.428 0 2.388 0 2.816 0 1.296 2.941 2.347 6.571 2.347s6.571-1.050 6.571-2.347c0-0.428 0-2.388 0-2.816"></path>
</symbol>
<symbol id="slideBtn" viewBox="0 0 18 32">
<path fill="none" stroke="#b9b9b9" style="stroke: var(--color1, #b9b9b9)" stroke-linejoin="miter" stroke-linecap="butt" stroke-miterlimit="4" stroke-width="1.4222" d="M17.067 0.711l-15.293 13.7c-0.947 0.848-0.947 2.33 0 3.178l15.293 13.7"></path>
</symbol>
<symbol id="arrow" viewBox="0 0 32 32">
<path d="M7.038 32l-2.441-3.324 17.26-12.677-17.26-12.676 2.441-3.324 19.523 14.338c0.529 0.389 0.841 1.006 0.841 1.662s-0.312 1.273-0.841 1.662l-19.523 14.338z"></path>
</symbol>
<symbol id="location" viewBox="0 0 25 32">
<path fill="#0499dd" style="fill: var(--color1, #0499dd)" d="M24.909 12.193c0-6.483-5.221-11.704-11.704-11.704s-11.704 5.221-11.704 11.704c0 6.483 11.704 18.589 11.704 18.589s11.704-12.106 11.704-18.589zM7.755 11.963c0-2.983 2.467-5.451 5.451-5.451s5.45 2.41 5.45 5.451c0 2.983-2.41 5.451-5.45 5.451-2.983 0-5.451-2.467-5.451-5.451z"></path>
</symbol>
<symbol id="quantity" viewBox="0 0 32 32">
<path fill="#0499dd" style="fill: var(--color1, #0499dd)" d="M22 18.667c-2 0-3.6 0.533-4.8 1.2 1.867 1.6 2.667 3.467 2.8 3.6l0.133 0.267v2.933h10.667v-2.667c-0.133 0-2.267-5.333-8.8-5.333z"></path>
<path fill="#0499dd" style="fill: var(--color1, #0499dd)" d="M22 16c2.577 0 4.667-2.089 4.667-4.667s-2.089-4.667-4.667-4.667c-2.577 0-4.667 2.089-4.667 4.667s2.089 4.667 4.667 4.667z"></path>
<path fill="#0499dd" style="fill: var(--color1, #0499dd)" d="M5.334 11.333c0-2.533 2.133-4.667 4.667-4.667s4.667 2.133 4.667 4.667c0 2.533-2.133 4.667-4.667 4.667s-4.667-2.133-4.667-4.667zM10 18.667c-6.533 0-8.667 5.333-8.667 5.333v2.667h17.333v-2.667c0 0-2.133-5.333-8.667-5.333z"></path>
</symbol>
<symbol id="calendar" viewBox="0 0 29 32">
<path fill="#0499dd" style="fill: var(--color1, #0499dd)" d="M0 6.4c0-1.76 1.44-3.2 3.2-3.2h22.4c0.849 0 1.663 0.337 2.263 0.937s0.937 1.414 0.937 2.263v22.4c0 0.849-0.337 1.663-0.937 2.263s-1.414 0.937-2.263 0.937h-22.4c-0.849 0-1.663-0.337-2.263-0.937s-0.937-1.414-0.937-2.263v-22.4zM3.2 9.6v19.2h22.4v-19.2h-22.4zM6.4 0h3.2v3.2h-3.2v-3.2zM19.2 0h3.2v3.2h-3.2v-3.2zM6.4 14.4h3.2v3.2h-3.2v-3.2zM6.4 20.8h3.2v3.2h-3.2v-3.2zM12.8 14.4h3.2v3.2h-3.2v-3.2zM12.8 20.8h3.2v3.2h-3.2v-3.2zM19.2 14.4h3.2v3.2h-3.2v-3.2zM19.2 20.8h3.2v3.2h-3.2v-3.2z"></path>
</symbol>
<symbol id="svgrepo_clock" viewBox="0 0 32 32">
<path d="M16 3.237c-7.037 0-12.762 5.725-12.762 12.762s5.725 12.762 12.762 12.762 12.762-5.725 12.762-12.762-5.725-12.762-12.762-12.762v0zM16 31.313c-8.444 0-15.313-6.869-15.313-15.313s6.869-15.313 15.313-15.313 15.313 6.869 15.313 15.313-6.869 15.313-15.313 15.313z"></path>
<path d="M21.506 17.275h-5.506c-0.706 0-1.275-0.569-1.275-1.275v-9.863c0-0.706 0.569-1.275 1.275-1.275s1.275 0.569 1.275 1.275v8.588h4.231c0.706 0 1.275 0.569 1.275 1.275s-0.569 1.275-1.275 1.275z"></path>
</symbol>
<symbol id="svgrepo_money" viewBox="0 0 32 32">
<path d="M9.93 10.177c2.929 0 5.223-1.575 5.223-3.586s-2.294-3.587-5.223-3.587-5.223 1.575-5.223 3.587c0 2.011 2.294 3.586 5.223 3.586zM9.93 4.62c1.922 0 3.607 0.921 3.607 1.971 0 1.161-1.901 1.97-3.607 1.97-2.126 0-3.607-1.038-3.607-1.97 0-1.050 1.686-1.971 3.607-1.971z"></path>
<path d="M19.861 12.342c0-0.473 0-0.383-0.001-5.734 0-0.006 0-0.011 0-0.017 0-3.746-4.553-6.549-9.93-6.549s-9.922 2.801-9.93 6.54c0 0.003-0 0.006-0 0.010 0 0.728 0 17.88 0 18.817 0 5.855 10.465 8.532 16.575 4.886 6.473 4.319 15.425-0.246 15.425-8.268-0-6.517-6.082-11.092-12.139-9.685zM9.93 1.658c4.505 0 8.311 2.257 8.314 4.93 0 0.001-0 0.002-0 0.004 0 0.008-0.001 0.015-0.001 0.023-0.022 2.664-3.82 4.909-8.313 4.909-4.507 0-8.314-2.259-8.314-4.932s3.808-4.933 8.314-4.933zM1.616 10.201c2.058 2.064 5.366 2.938 8.315 2.938 2.919 0 6.249-0.867 8.315-2.938 0 0.467 0.001 2.197-0 2.66-2.303 0.96-4.085 2.738-5.098 4.809-5.431 1.388-11.531-1.090-11.531-4.54v-2.929zM1.616 16.773c2.708 2.612 7.2 3.318 10.862 2.691-0.413 1.563-0.464 3.239-0.059 4.906-4.611 0.877-10.443-1.022-10.787-4.403-0.023-0.226-0.017-0.005-0.017-3.194zM1.616 25.409v-2.125c2.688 2.679 7.551 3.413 11.317 2.633 0.533 1.254 1.33 2.386 2.276 3.288-5.275 2.656-13.592 0.343-13.592-3.795zM17.084 28.679c-5.348-4.013-3.969-12.317 2.224-14.497 0.001-0 0.001-0.001 0.002-0.001 0.003-0.001 0.007-0.002 0.010-0.004 5.381-1.889 11.064 2.093 11.064 7.848 0 6.963-7.94 10.679-13.3 6.652z"></path>
<path d="M22.071 15.435c-3.634 0-6.591 2.957-6.591 6.592 0 3.634 2.957 6.591 6.591 6.591s6.593-2.956 6.593-6.591c-0-3.635-2.957-6.592-6.592-6.592zM22.071 27.002c-2.743 0-4.975-2.232-4.975-4.975s2.232-4.976 4.975-4.976c2.744 0 4.976 2.232 4.976 4.976 0 2.743-2.232 4.975-4.976 4.975z"></path>
<path d="M22.479 21.55v-1.306c0.231 0.054 0.463 0.157 0.701 0.299 0.448 0.269 0.84-0.382 0.381-0.64-0.313-0.197-0.653-0.327-1.055-0.374v-0.15c0-0.163-0.129-0.293-0.293-0.293s-0.299 0.129-0.299 0.293v0.143c-0.851 0.068-1.429 0.572-1.429 1.3 0 0.769 0.463 1.143 1.456 1.402v1.34c-0.374-0.068-0.687-0.225-1.007-0.456-0.226-0.176-0.599-0.030-0.599 0.299 0 0.143 0.068 0.252 0.184 0.327 0.415 0.293 0.885 0.476 1.395 0.531v0.422c0 0.381 0.592 0.393 0.592 0v-0.408c0.864-0.082 1.449-0.578 1.449-1.327 0-0.728-0.442-1.143-1.476-1.402zM21.941 21.407c-0.524-0.17-0.653-0.347-0.653-0.633 0-0.299 0.218-0.531 0.653-0.572v1.204zM22.479 23.592v-1.238c0.524 0.163 0.674 0.347 0.674 0.646 0 0.327-0.238 0.544-0.674 0.592z"></path>
</symbol>
<symbol id="heart" viewBox="0 0 32 32">
<path d="M29.415 4.545c-1.676-1.676-3.894-2.591-6.262-2.591s-4.593 0.923-6.268 2.598l-0.875 0.875-0.889-0.889c-1.676-1.676-3.908-2.605-6.275-2.605-2.361 0-4.586 0.923-6.255 2.591-1.676 1.676-2.598 3.901-2.591 6.268 0 2.368 0.929 4.586 2.605 6.262l12.74 12.74c0.176 0.176 0.414 0.271 0.644 0.271s0.468-0.088 0.644-0.265l12.767-12.72c1.676-1.676 2.598-3.901 2.598-6.268 0.007-2.368-0.909-4.593-2.585-6.268zM28.113 15.786l-12.123 12.075-12.096-12.096c-1.33-1.33-2.062-3.094-2.062-4.973s0.726-3.643 2.056-4.966c1.323-1.323 3.087-2.056 4.959-2.056 1.879 0 3.65 0.733 4.979 2.062l1.533 1.533c0.36 0.36 0.936 0.36 1.296 0l1.52-1.52c1.33-1.33 3.1-2.062 4.973-2.062s3.636 0.733 4.966 2.056c1.33 1.33 2.056 3.094 2.056 4.973 0.007 1.879-0.726 3.643-2.056 4.973z"></path>
</symbol>
<symbol id="hryvnia" viewBox="0 0 32 32">
<path d="M27.314 4.686c-3.022-3.022-7.040-4.686-11.314-4.686s-8.292 1.664-11.314 4.686c-3.022 3.022-4.686 7.040-4.686 11.314s1.664 8.292 4.686 11.314c3.022 3.022 7.040 4.686 11.314 4.686s8.292-1.664 11.314-4.686c3.022-3.022 4.686-7.040 4.686-11.314s-1.664-8.292-4.686-11.314zM16 30.979c-8.259 0-14.979-6.719-14.979-14.979s6.719-14.979 14.979-14.979 14.979 6.719 14.979 14.979-6.719 14.979-14.979 14.979z"></path>
<path d="M19.745 24.692h-7.489c-0.282 0-0.511 0.229-0.511 0.511s0.229 0.511 0.511 0.511h7.489c0.282 0 0.511-0.229 0.511-0.511s-0.229-0.511-0.511-0.511z"></path>
<path d="M21.714 19.241v-9.733c0-0.282-0.229-0.511-0.511-0.511h-10.406c-0.282 0-0.511 0.229-0.511 0.511v9.733c0 0.879 0.642 1.819 1.461 2.139l4.067 1.589c0.060 0.023 0.123 0.035 0.186 0.035s0.126-0.012 0.186-0.035l4.067-1.589c0.819-0.32 1.461-1.259 1.461-2.139zM20.693 19.241c0 0.464-0.379 1.019-0.811 1.188l-3.881 1.516-3.881-1.516c-0.432-0.169-0.811-0.724-0.811-1.188v-9.223h9.385v9.223z"></path>
<path d="M12.839 19.751h2.65v0.17c0 0.282 0.229 0.511 0.511 0.511s0.511-0.229 0.511-0.511v-0.17h2.65c0.282 0 0.511-0.229 0.511-0.511v-7.326c0-0.282-0.229-0.511-0.511-0.511-1.483 0-2.099 2.844-2.331 4.474h-0.319v-4.329c0-0.282-0.229-0.511-0.511-0.511s-0.511 0.229-0.511 0.511v4.329h-0.319c-0.231-1.63-0.847-4.474-2.331-4.474-0.282 0-0.511 0.229-0.511 0.511v7.326c-0 0.282 0.229 0.511 0.511 0.511zM18.491 13.361c0.055-0.132 0.108-0.247 0.159-0.346v2.864h-0.788c0.15-1.015 0.365-1.878 0.629-2.518zM18.65 16.9v1.83h-2.139v-1.83h2.139zM15.489 18.73h-2.139v-1.83h2.139v1.83zM13.509 13.361c0.264 0.639 0.479 1.502 0.629 2.518h-0.788v-2.864c0.051 0.099 0.105 0.213 0.159 0.346z"></path>
<path d="M22.022 5.827c-0.171-0.224-0.492-0.267-0.716-0.096l-1.562 1.193-1.563-1.193c-0.183-0.14-0.437-0.14-0.62 0l-1.562 1.193-1.562-1.193c-0.183-0.14-0.437-0.14-0.62 0l-1.562 1.193-1.562-1.193c-0.224-0.171-0.545-0.128-0.716 0.096s-0.128 0.545 0.096 0.716l1.872 1.43c0.092 0.070 0.201 0.105 0.31 0.105s0.218-0.035 0.31-0.105l1.562-1.193 1.562 1.193c0.183 0.14 0.437 0.14 0.62 0l1.562-1.193 1.563 1.193c0.183 0.14 0.437 0.14 0.62 0l1.872-1.43c0.224-0.171 0.267-0.492 0.096-0.716z"></path>
<path d="M6.046 11.404c-0.282 0-0.511 0.229-0.511 0.511v5.298c0 1.234 0.885 2.264 2.053 2.491 0.12 1.153 0.68 2.305 1.549 3.154 0.099 0.097 0.228 0.145 0.357 0.145 0.133 0 0.265-0.051 0.365-0.154 0.197-0.202 0.194-0.525-0.008-0.722-0.793-0.775-1.266-1.855-1.266-2.887v-7.326c0-0.282-0.229-0.511-0.511-0.511s-0.511 0.229-0.511 0.511v0.256c-0.158-0.055-0.327-0.086-0.503-0.086s-0.346 0.030-0.503 0.086v-0.256c0-0.282-0.229-0.511-0.511-0.511zM6.556 13.61c0-0.277 0.226-0.503 0.503-0.503s0.503 0.226 0.503 0.503v5.032c-0.586-0.21-1.007-0.771-1.007-1.429-0 0-0-3.602 0-3.603z"></path>
<path d="M22.507 23.004c0.129 0 0.258-0.048 0.357-0.145 0.869-0.849 1.428-2.001 1.549-3.154 1.168-0.227 2.053-1.258 2.053-2.491v-5.298c0-0.282-0.229-0.511-0.511-0.511s-0.511 0.229-0.511 0.511v0.256c-0.158-0.055-0.327-0.086-0.503-0.086s-0.346 0.030-0.503 0.086v-0.256c0-0.282-0.229-0.511-0.511-0.511s-0.511 0.229-0.511 0.511v7.326c0 1.033-0.473 2.112-1.266 2.887-0.202 0.197-0.205 0.52-0.008 0.722 0.1 0.102 0.233 0.154 0.365 0.154zM24.94 13.106c0.277 0 0.503 0.226 0.503 0.503v3.603c0 0.657-0.421 1.218-1.007 1.429v-5.032c0-0.277 0.226-0.503 0.503-0.503z"></path>
<path d="M16 1.736c-7.865 0-14.264 6.399-14.264 14.264s6.399 14.264 14.264 14.264c3.418 0 6.724-1.228 9.309-3.457 0.214-0.184 0.237-0.507 0.053-0.72s-0.507-0.237-0.72-0.053c-2.4 2.069-5.469 3.209-8.642 3.209-7.302 0-13.243-5.941-13.243-13.243s5.941-13.243 13.243-13.243 13.243 5.941 13.243 13.243c0 3.173-1.14 6.242-3.209 8.642-0.184 0.214-0.16 0.536 0.053 0.72s0.536 0.16 0.72-0.053c2.229-2.586 3.457-5.892 3.457-9.309 0-7.865-6.399-14.264-14.264-14.264z"></path>
</symbol>
<symbol id="icon_hryvnia" viewBox="0 0 32 32">
<path d="M14.211 5c-0.99 0-1.948 0.291-2.773 0.84l-1.992 1.328 1.109 1.664 1.992-1.328c0.495-0.33 1.070-0.504 1.664-0.504h4.385c1.326 0 2.404 1.078 2.404 2.404 0 0.716-0.315 1.391-0.865 1.85l-0.895 0.746h-11.24v2h8.84l-3.602 3h-5.238v2h2.84l-0.254 0.211c-1.007 0.84-1.586 2.074-1.586 3.385 0 2.429 1.975 4.404 4.404 4.404h4.385c0.99 0 1.949-0.291 2.773-0.84l1.992-1.328-1.109-1.664-1.992 1.328c-0.495 0.33-1.070 0.504-1.664 0.504h-4.385c-1.326 0-2.404-1.078-2.404-2.404 0-0.716 0.315-1.391 0.865-1.85l2.096-1.746h10.039v-2h-7.639l3.6-3h4.039v-2h-1.85c0.546-0.746 0.85-1.65 0.85-2.596 0-2.429-1.975-4.404-4.404-4.404h-4.385z"></path>
</symbol>
<symbol id="reset" viewBox="0 0 32 32">
<path d="M5.632 2.709l10.368 10.368 10.325-10.325c0.366-0.389 0.874-0.612 1.408-0.619 1.178 0 2.133 0.955 2.133 2.133 0.010 0.529-0.198 1.038-0.576 1.408l-10.432 10.325 10.432 10.432c0.352 0.344 0.558 0.81 0.576 1.301 0 1.178-0.955 2.133-2.133 2.133-0.55 0.023-1.084-0.186-1.472-0.576l-10.261-10.368-10.347 10.347c-0.364 0.376-0.863 0.591-1.387 0.597-1.178 0-2.133-0.955-2.133-2.133-0.010-0.529 0.198-1.038 0.576-1.408l10.432-10.325-10.432-10.432c-0.352-0.344-0.558-0.81-0.576-1.301 0-1.178 0.955-2.133 2.133-2.133 0.513 0.006 1.003 0.213 1.365 0.576z"></path>
</symbol>
</defs>
</svg>
